<svg version="1.2" xmlns="http://www.w3.org/2000/svg" viewBox="0 0 399 121" width="399" height="121"><style>.a{fill:#fff}.b{fill:#f3971b}</style><path class="a" d="m89.6 29.5v37.2q0 0.4-0.1 0.8-0.2 0.4-0.5 0.8-0.4 0.3-0.8 0.4-0.4 0.2-0.8 0.2h-11.7q-0.5 0-0.9-0.2-0.4-0.1-0.8-0.4-0.3-0.4-0.4-0.8-0.2-0.4-0.2-0.8v-60.4q0-0.5 0.2-0.9 0.1-0.4 0.4-0.7 0.4-0.3 0.8-0.5 0.4-0.2 0.9-0.2h10.8q0.4 0 0.9 0.2 0.4 0.2 0.7 0.5 0.3 0.3 0.5 0.7 0.2 0.4 0.2 0.9v8.5c0 0 3.8-12.1 15.3-12.1 0 0 11.4-1.4 16 11.2 0 0 3.9-11.2 15.7-11.2 0 0 17.4-1.1 17.4 17l0.2 10v37.1q0 0.4-0.2 0.8-0.2 0.5-0.5 0.8-0.3 0.3-0.7 0.5-0.5 0.1-0.9 0.1h-11.7q-0.5 0-0.9-0.1-0.4-0.2-0.7-0.5-0.3-0.3-0.5-0.8-0.2-0.4-0.2-0.8l-0.1-40.5c0.3-9.2-7.1-8.5-7.1-8.5-9.3 0.2-8.4 11.9-8.4 11.9v37.1q0 0.4-0.2 0.8-0.2 0.5-0.5 0.8-0.3 0.3-0.7 0.5-0.4 0.1-0.9 0.1h-11.7q-0.4 0-0.9-0.1-0.4-0.2-0.7-0.5-0.3-0.3-0.5-0.8-0.2-0.4-0.2-0.8v-39.6c0 0 0.7-9.5-7.6-9.5 0 0-8.3-1.1-8 11.8zm302-0.1v37.1q0 0.5-0.2 0.9-0.2 0.4-0.5 0.7-0.3 0.4-0.7 0.5-0.4 0.2-0.9 0.2l-12.2 0.2q-0.4 0-0.8-0.1-0.4-0.2-0.8-0.5-0.3-0.3-0.5-0.8-0.1-0.4-0.1-0.8v-39.6c0 0 0.7-9.5-7.7-9.5 0 0-7.9-0.4-7.9 14.5v34.4q0 0.5-0.2 0.9-0.2 0.4-0.5 0.8-0.3 0.3-0.7 0.4-0.5 0.2-0.9 0.2h-11.7q-0.5 0-0.9-0.2-0.4-0.1-0.7-0.4-0.3-0.4-0.5-0.8-0.2-0.4-0.2-0.9v-60.3q0-0.5 0.2-0.9 0.2-0.4 0.5-0.7 0.3-0.3 0.7-0.5 0.4-0.2 0.9-0.2h10.8q0.5 0 0.9 0.2 0.4 0.2 0.7 0.5 0.3 0.3 0.5 0.7 0.2 0.4 0.2 0.9v8.5c0 0 3.9-12.1 15.4-12.1 0 0 12.3-1.9 16.4 11 0 0 1.4 2.6 1.4 15.7zm-84.6-27c-15 0-27.1 12.6-27.1 33.9 0 18.7 9.4 33.9 27.1 33.9 16.8 0 27.1-15.2 27.1-33.9 0-20.9-12.1-33.9-27.1-33.9zm9.5 34.6c0 8-1 12.3-1 12.3-1.5 8.4-7.6 8.5-8.5 8.4-1 0.1-7.2 0-8.5-8.4 0 0-1-4.3-1-12.3v-1.3c0-8 1-12.2 1-12.2 1.3-8.4 7.5-8.5 8.5-8.5 0.9 0 7 0 8.5 8.5 0 0 1 4.2 1 12.2zm-43.4-22.3v-8.7q0-0.4-0.2-0.9-0.2-0.4-0.5-0.7-0.3-0.3-0.7-0.5-0.4-0.2-0.9-0.2h-38.7q-0.5 0-0.9 0.2-0.4 0.2-0.7 0.5-0.3 0.3-0.5 0.7-0.2 0.5-0.2 0.9v8.6q0 0.5 0.2 0.9 0.2 0.4 0.5 0.7 0.3 0.3 0.7 0.5 0.4 0.2 0.9 0.2h20.2l-23.9 34.7c0 0-1 1.4-0.9 2.9v10.6c0 0-0.2 3.6 3.9 1.5 0 0 7.3-4.4 19.5-4.4 0 0 12.1-0.2 20.1 4.8 0 0 3.4 1.5 3.4-1.9v-9.1c0 0 0.3-2.5-2.9-4 0 0-9.3-5.1-21.4-4.2zm-208.8 43.4l-3.6-5.6c-1.2-2.1-1.1-4.4-1.1-4.4v-25.8c0.5-22.2-24.2-20.3-24.2-20.3-21.9 0-25.1 17.1-25.1 17.1-1 3.4 1.7 3.5 1.7 3.5l10.7 1.1c0 0 1.8 0.4 2.5-1.8 0 0 1.4-7.4 9.3-7.4 8.6 0 8.5 7.3 8.5 7.3v6.2c-17.1 0.6-25.1 5.3-25.1 5.3-10.6 6-9.9 17.9-9.9 17.9 0 19.5 18.5 18.6 18.5 18.6 11.8 0 18.8-8.6 18.8-8.6 2.1 3.6 6 7.1 6 7.1 1.9 2.1 3.9 0.4 3.9 0.4l8.6-7.5c2-1.4 0.5-3.1 0.5-3.1zm-32-0.3c-5.6 0-7.6-5.5-6.7-10.9 0.9-5.5 5.7-9.7 17.4-9.6v3.3c0.4 14.4-6.1 17.2-10.7 17.2zm187.7 0.3l-3.7-5.6c-1.1-2.1-1-4.4-1-4.4v-25.8c0.5-22.2-24.2-20.3-24.2-20.3-21.9 0-25.2 17.1-25.2 17.1-0.9 3.4 1.8 3.5 1.8 3.5l10.7 1.1c0 0 1.8 0.4 2.5-1.8 0 0 1.4-7.4 9.3-7.4 8.6 0 8.5 7.3 8.5 7.3v6.2c-17.2 0.6-25.1 5.3-25.1 5.3-10.6 6-9.9 17.9-9.9 17.9 0 19.5 18.5 18.6 18.5 18.6 11.8 0 18.8-8.6 18.8-8.6 2.1 3.6 5.9 7.1 5.9 7.1 1.9 2.1 3.9 0.4 3.9 0.4l8.7-7.5c1.9-1.4 0.5-3.1 0.5-3.1zm-32-0.3c-5.6 0-7.7-5.5-6.8-10.9 1-5.5 5.8-9.7 17.5-9.6v3.3c0.4 14.4-6.1 17.2-10.7 17.2z"/><path class="b" d="m249.5 106.9c0 0-1 1.7 0.2 2 0 0 1.4 0.6 3.1-1 0 0 12.4-10.8 12.7-30.5 0 0 0-2.4-0.9-3.1 0 0-3.9-3.4-17.9-2.4 0 0-12.1 0.8-18.7 6.7 0 0-0.6 0.5-0.6 1.2 0 0-0.2 1.5 3.5 0.8 0 0 12.1-1.7 19.3-0.8 0 0 3.8 0.5 4.8 1.7 0 0 1.7 1.4 0.8 6.1 0 0-2.4 12-6.3 19.3z"/><path class="b" d="m247.1 88c0 0 1.8 2.3-1.2 4.4 0 0-31.2 25-83.7 25 0 0-54.1 2.6-99.2-38.4 0 0-1.6-1.3-0.6-2.6 0 0 0.9-1.2 3.2 0.1 0 0 42.4 26.4 98.2 26.4 0 0 38.7 1.5 78.5-15.5 0 0 3.1-1.6 4.8 0.6z"/></svg>