<svg version="1.2" xmlns="http://www.w3.org/2000/svg" viewBox="0 0 890 477" width="890" height="477"><style>.a{fill:#fff}</style><path class="a" d="m477.9 22c-2.9 0.4-5.7 11.1-11.3 16.7-4.1 4-9.2 3.7-12 8.7-1 1.8-0.7 5-1.8 8-2.3 6.1-10.4 6.7-10.4 13.3 0 7.1 6.8 8.5 12.6 13.6 4.6 4 5 6.9 10.5 8.8 4.7 1.6 11.7-3.6 18-1.7 5.2 1.5 10.2 2.6 11.4 8 1 4.9-0.1 12.5-6.4 11.6-2.1-0.2-11.3-3.3-22.6-2.1-13.6 1.5-29.1 6-30.6 21.1-0.9 8.5 9.6 18.5 19.7 16.5 7-1.4 3.7-9.7 7.5-13.7 5-5.1 33.4 18 59.7 18 11.1 0 19.4-2.8 27.6-11.4 0.7-0.7 1.7-2.1 2.8-2.2 1.2 0.1 3.1 1.2 3.7 1.7 21.3 17.1 37.3 51.3 115.3 51.7 10.9 0 23.4 5.3 33.6 14.6 9.1 8.4 14.5 21.5 19.6 34.7 7.8 20 21.8 39.3 43 60.9 1.2 1.2 18.6 14.7 20 15.7 0.2 0.2 1.5 3.2 1.1 5-0.5 12.9-2.4 50.5 25.6 52.2 6.9 0.3 5.1-4.5 5.1-7.8 0-6.5-1.2-13.1 2.2-19.8 4.7-9.2-10-13.4-9.6-33.4 0.3-14.8-12.1-12.3-18.5-23.6-3.6-6.6-6.9-10.1-6.6-18.1 1.4-45.2-9.7-74.8-15.2-82.1-4.2-5.5-7.8-7.7-3.9-10.3 23.4-15.4 28.7-29.8 28.7-29.8 12.5-29.2 23.7-55.9 39.1-67.7 3.1-2.4 11.1-8.4 15.9-10.7 14.4-6.8 22-10.9 26.2-15 6.6-6.4 11.8-19.9 5.5-28-7.9-10.1-21.5-2.1-27.5 1.5-43.1 25.5-49.4 70.5-64.3 96.4-11.9 20.6-31.2 35.8-48.5 37.1-12.9 0.9-26.9-1.7-40.8-7.8-33.8-14.8-52.3-34-56.7-37.4-9-7-79.6-76.2-136.7-79 0 0-7.1-14.2-8.9-14.4-4.2-0.6-8.4 8.4-11.5 9.5-2.9 0.9-7.7-9.8-10.6-9.3zm-251.6 413.2c-5.3-0.2-9.9-4.6-9.9-10v-178.3h-58.7v196.5c0 9.6 7.8 17.5 17.3 17.5h102.7c9.6 0 17.3-7.9 17.3-17.5v-196.5h-58.6l-0.1 178.3c0 5.4-4.6 9.8-10 10zm196.7-188.3h-88.9c-10.5 0-19.1 8.6-19.1 19.2v194.8h58.8v-178.7c0-5.4 4.5-9.8 9.9-9.8 5.5 0 9.9 4.3 10.1 9.7v178.8h58.5v-178.8c0.1-5.4 4.5-9.7 10-9.7 5.4 0 9.9 4.4 9.9 9.8v178.7h58.8v-194.8c0-10.6-8.6-19.2-19.1-19.2zm-304.5 160.2h-59.3v53.8h-58.8v-214h118.5c10.6 0 18.8 8.7 18.8 19.3v121.6c0 10.7-8.6 19.3-19.2 19.3zm-39.4-124.5c0-5.9-4.8-10.2-10-10.2h-9.9v108.2h9.9c5.2 0 10-4.1 10-10zm679.8 152.9c0 14.5-11.6 26.3-26 26.3-14.6 0-26.3-11.7-26.3-26.3 0-14.3 11.7-26.3 25.8-26.3 14.9 0 26.5 11.6 26.5 26.3zm-26.4-22.5c-11.8 0-21.7 10.2-21.7 22.6 0 12.4 9.9 22.5 22.1 22.5 12 0 21.8-10.1 21.8-22.5 0-12.4-9.8-22.6-21.8-22.6z"/><path class="a" d="m745.2 450.8h-7l-9.1-12v12h-5.7v-30.4h6c8.2 0 12.6 3.1 12.6 9 0 4-2.6 7.5-6.2 8.5l-0.4 0.2zm-15-16.9c4 0 6.2-1.5 6.2-4.4 0-2.6-2.1-3.9-6.1-3.9h-1.1v8.3zm-100.6 27v-53.7h-19.9v53.7h-58.7v-194.8c0-10.6 8.6-19.1 19.1-19.1h99.1c10.6 0 19.1 8.5 19.1 19.1v194.8zm0-80.2v-98.5c-0.1-5.5-4.5-9.7-10-9.7-5.4 0-9.9 4.4-9.9 9.8v98.4z"/></svg>