<svg version="1.2" xmlns="http://www.w3.org/2000/svg" viewBox="0 0 617 168" width="617" height="168"><style>.a{fill:#fff}</style><path class="a" d="m186.1 19.5c-2.2 14.4-6.4 49.2 2.7 83.7 1.9 4.6 6.4 3.4 8.3 1.3 0.6-1 6.7-6.8 6.7-6.8 2.1-3 4.3-2.1 5.8 0 1.5 2.2 5.8 8.9 12.2 9.2 6.4 0.3 16.5-7.3 20.5-10.4 2.7 5.2 6.1 10.1 11.6 9.8 5.5-0.3 10.7-4.3 15.3-9.2 3.3 4 7 8.3 11.3 8 4.2-0.3 12.2-4.9 19.8-12 3.1-3.3 6.4-1.8 8.6 1.6 2.1 3.3 5.2 8.8 9.1 8.8 4 0 9.8-5.5 11.6-7 1.9-1.5 3.7-2.7 5.8-0.3l4.6 4.3c2.8 2.7 8.6 2.1 12.8-1.9 4.3-3.9 5.2-5.1 7.1-5.1 1.8 0 2.7 2.4 4.5 4.2 1.9 1.9 15.9 14.1 34.6-4.9 0.3 9.5-1.9 62.7-1.9 70.3 0 3.7 4.3 4.9 10.4 3.7 6.1-1.3 9.2-3.1 8.9-12-0.3-8.8-1.6-52.5-1.6-52.5 1-7 7.1-18.6 13.5-18.9 6.4-0.3 3.3 7.6 0.3 7.6-3.1 0-6.4 1.5-6.4 4.3 0 2.7 0.9 10.7 18.9 10.7 18 0 20.2-5.8 25-8 3.1 5.8 12.3 15 37.6-1.2 5.2 6.1 15 13.8 25.7 6.1 3.3-2.7 6.7-9.1 5.5-14.6-1-2.2-0.3-3.1 1.2-3.1h10.1c2.1 0 5.8 1.5 7 7.6 1.2 6.2 5.5 11.3 8.8 11 3.4-0.3 9.8-5.5 13.5-9.1 3 4.3 16.2 24.1 40.3-9.2 2.1-3-1.2-4.6-3.1-2.4-1.8 2.1-7.3 5.5-11.9 5.8-4.5 0.3-10-4.3-14.3-10.1-4.3-5.8-9.2-3.7-12.2 0.9-2.2 2.5-3.4 4.9-5.8 7.6-1.6-2.7-3.4-8.5-6.5-10.6-3-2.2-5.5-2.5-12.8-0.7-7.3 1.9-15.6 2.8-23.8 3.1-4.6-0.3-3.4 1.8-3.1 3.7 0.3 1.8 3.7 9.4-2.4 9.7-6.1 0.3-5.5-8.8-1.2-13.7 2.1-2.1-0.9-6.7-4.3-4.9-3.4 1.8-5.5 2.8-8.2 7-2.8 4.3-8.6 10.7-18.1 11-9.4 0.3-6.7-10.7-6.4-15.6 0-2.7-1.8-5.1-6.7-3.9-4.9 1.2-11.3 0.6-10.7 14-3.3 4.9-11 8-17.1 7.1-1.8-0.4-2.4-1.3-1.8-3.4 0.6-2.1 2.1-14.1-7-17.1-9.2-3.1-16.2 1.2-20.8 5.2-2.5 1.2-3.1 0-3.1-2.2l0.3-11.3c0-5.1-10.3-6.4-11.9-0.3-1.5 6.1-3.3 18.1-12.5 22.3-9.2 4.3-12.2-1.2-17.1-7.3-4.9-6.1-9.8-5.8-15.3-0.3l-5.5 5.2c-2.1 1.8-3.3 1.2-5.2-1.5-1.8-2.8-3-6.5-6.4-6.8-3.3-0.3-3.9 1-6.4 2.8l-7 5.5c-2.8 2.1-3.4 2.1-6.1-1.5 0 0-4.6-7.7-9.2-7.7-4.6 0-6.1 2.8-8.8 4.9 0 0-7.1 4.9-9.5 7-2.4 2.2-9.5 6.5-16.2-3.6-2.4-3.7-6.7-6.4-9.8-1.3-3 5.2-7.9 13.2-11.6 10.7-3.6-2.4 2.5-9.4 7.1-10 4.5-0.7 1.8-6.5-2.8-6.8-4.6-0.3-11.9 2.8-15.3 6.8-3.3 3.9-8.8 8.5-14.3 8.2-5.5-0.3-6.7-4.6-9.5-10.4-2.7-5.8-7.6-5.2-11.3-2.1-3.7 3-4.6 4-7.3 7.3-2.8 3.4-2.8 1.5-3.1-0.6-0.3-2.1-2.1-41.5 0.9-66.9 1.3-6.4-11.9-8.5-14.6 1.2z"/><path class="a" d="m475 66.6c5.3 0 9.5-4.2 9.5-9.5 0-5.2-4.2-9.5-9.5-9.5-5.2 0-9.5 4.3-9.5 9.5 0 5.3 4.3 9.5 9.5 9.5zm-304.2 9.8c-1.2 0.9-35.7 12.5-54.7 13.7v-70.9c11 0.3 31.8 4.9 44.9 9.8 3.1 1.5 9.5-0.3 2.8-7-15.6-12.5-40-22-72.4-22-32.4 0-90.4 18-90.4 54.7 0 36.6 46.4 54.9 90.7 54.9 31.2 0 60.2-11.3 81.2-31.4 3.4-3.4-0.9-2.8-2.1-1.8zm-104.8 13.6c-26.3-5.4-45-19-45-35 0-16 18.7-29.7 45-35.1zm536.2-22.9c-2.5 0-4.5 2-4.5 4.3 0 2.5 2 4.4 4.5 4.4 2.4 0 4.4-1.9 4.4-4.4 0-2.3-2-4.3-4.4-4.3zm0 7.9c-2 0-3.6-1.6-3.6-3.6 0-1.9 1.6-3.4 3.6-3.4 2 0 3.6 1.5 3.6 3.4 0 2-1.6 3.6-3.6 3.6z"/><path class="a" d="m604.5 70.4c0-0.5-0.2-0.9-0.6-1.1-0.4-0.2-0.8-0.2-1.2-0.2h-2.2v4.8h0.8v-2.2h0.8l1.5 2.2h0.8l-1.5-2.2c0.9 0 1.6-0.4 1.6-1.3zm-2.4 0.7h-0.8v-1.5h1.3c0.6 0 1.1 0.1 1.1 0.7 0 0.9-0.9 0.8-1.6 0.8z"/></svg>