<svg version="1.2" xmlns="http://www.w3.org/2000/svg" viewBox="0 0 298 143" width="298" height="143"><style>.a{fill:#db0026}.b{fill:#004526}.c{fill:#fff}</style><path fill-rule="evenodd" class="a" d="m192.3 52.3c-1.4-1.9-1.6-5.2-4.5-5.5-2.7-0.7-5.5-1.5-8.3-2.2l-16.4 2.7-1.9 8.8 26.5 3.5 6.9 4.6 18.1 1.9 8.4-3c-8.7-2.9-17.7-5.1-26.2-8.6-1.1-0.5-1.8-1.4-2.6-2.2z"/><path class="b" d="m224.5 62.7c-0.6-0.8-1.5-1.1-2.2-1.4-0.6-0.3-0.5-0.9-1.1-1.1-0.5-0.2-1.5 0.9-2.2 0.7-0.8-0.2-0.7-1.6-1.4-1.9-0.6-0.2-1.7 0.9-2.3 0.7-0.6-0.2-0.7-1.6-1.3-1.8-0.5-0.2-1.7 0.9-2.3 0.7-0.6-0.2-0.6-1.7-1.3-1.9-0.6-0.2-1.7 0.9-2.3 0.7-0.6-0.2-0.6-1.6-1.3-1.8-0.6-0.2-1.7 0.8-2.3 0.7-0.6-0.2-0.8-1.7-1.3-1.9-0.6-0.2-1.6 0.7-2.5 0.7-6.1-0.6-8.4-4.4-8.9-3.3-0.4 1.1 1.3 3.8 3.4 4.7 1.7 0.8 19.8 5.8 20.3 6 0.5 0.2 1.6 0.7 1.2 1.4-0.6 0.8-2.4 0-2.8-0.4-0.5-0.3-0.4-0.5-0.8-0.6-1-0.2-1.5 1.5-2.6 1.3-0.9-0.2-0.8-2.1-1.8-2.3-1-0.3-1.5 1.5-2.5 1.3-0.8-0.2-0.9-2.1-1.8-2.3-1-0.3-1.5 1.5-2.6 1.3-0.9-0.2-0.8-2.1-1.8-2.3-0.9-0.3-1.6 1.5-2.5 1.3-0.9-0.3-1.1-2.2-1.9-2.3-0.8-0.2-1.4 0.7-2.5 0.9 0 0-3.2 0.8-8.2-4.4-5-5.2-7.1-6.2-10-4.1-4.6 3.5-7.5 1.2-8.4 0.1-1-1.2 0.1-2.2 0.1-2.2 0 0 1.4 2.2 3.3 2.3 3 0.1 5.3-4 10.4-4.1 6.6-0.2 8.3 2.1 10.1 2.3 1.6 0.1 2.2-0.1 3.3-0.8 0.9-0.3 1.7 1.5 2.7 1.1 1-0.4 0.3-2.2 1.4-2.6 1-0.4 1.7 1.4 2.7 1.1 1-0.4 0.4-2.3 1.4-2.6 1-0.4 1.6 1.4 2.7 1 1-0.3 0.3-2.2 1.3-2.5 1-0.4 1.7 1.4 2.7 1 1-0.3 0.4-2.2 1.4-2.6 1-0.3 1.7 1.5 2.7 1.1 0.9-0.3 0.4-2.2 1.4-2.6 0.9-0.3 1.7 1.4 2.7 1.1 0.9-0.3 0.4-2.3 1.3-2.6 1-0.4 1.8 1.4 2.8 1.1 0.9-0.4 0.2-1.9 1.4-2.5 0 0 1.7-0.6 1.6-1.8 0-0.2-0.4-2.9-3.2-3.5-2.7-0.5-24 5.4-24.3 5-1.9-3.8-4.4-2.8-4.8-2.7-0.4 0.1-2.8 1.1-5.4 0.1-5.2-2.3-9.4 3.6-12.2 2.9-2.6-0.8-4.6-0.4-5.7 0-1 0.4-2.6 1.7-6.1 0.5-26.6-9.1-47.4-1.2-47.4-1.2-11.8 4-13.3 0-13.3 0 0 0-3.8-5.2 23.4-11.5 39.1-8.9 40.2-23.8 39.8-24.7-0.7-1.4-0.9 0.2-2.2 1.7-1.1 1.2-2.3 0.6-2.3 0.6-1.3-0.6-2.1 0.8-2.1 0.8 0 0-1.5 2.5-2.9 1.1-1.4-1.4-3.2 1.7-3.8 1.8-0.8 0.1-1.2-0.3-2.3-0.8-1.6-0.7-3.3 2.3-4.2 2.5-1.4 0.3-2.3-1.6-3.5-0.8-3.4 2.4-4 2.7-4.9 1.8-0.7-0.7-0.8-1.5-3.1 0.7-2 1.9-3 2.3-3.7 1.1-0.9-1.3-0.7-2.9-4 0.4-1.7 1.5-2.5 1.5-3.4 0.8-0.7-0.5-0.7-3-3.1-0.7-2.3 2-3.9 2.9-4.5 1.1-0.7-2-3.3 0.4-3.9 0.9-0.6 0.6-1.9 2.1-2.9 0.6-0.9-1.6-3.1 0.7-4.5 2.2-1 1.2-1.8 0.3-2.9-0.5-1.3-0.8-5 4.3-5.3 4.7-0.3 0.2-0.6 0-1.4-0.8-1.3-1.1-4.8 5.1-5.4 5.5 0 0-0.2 0.5-1.2-0.4-1.4-1.3-8.6 8.2-11.3 18.9-3.5 13.8 2.1 24.4 2.1 24.4 0 0 1.6 0.1 2.3-1.1l1.1-2.4c0.9-2 2.3-1.4 2.3-1.4l-3.4 10.1c-0.5 1.4-0.2 3.3 1 5.1 1.1 1.7 1.9 3 2.8 3.8 2.8 2.6 2.5-0.5 2.6-0.9 0.3-1.6 2.1-0.3 3.5 0.4 2.6 1.5 2.3-1.7 2.9-2.8 0.4-0.7 1.7-0.8 3.1 0.4 1.1 0.9 2.1-2.2 2.1-2.2 1.4-6.5-1.8-7.2-3.5-7.3l-3.5-0.2c0 0 0.3-1 0.6-1.9l0.2-0.7c3.8-9.4-2.6-11.2-4.4-11.1-2.1 0.2-2-1.1-2-1.1 0 0 11.4-2.2 9.3 9.9 0 0-0.4 2.1-0.7 3.2l3.2 0.3c2.7 0.4 3.2 3.6 3.2 3.6 0 0 9.9 2.6 15.5 1.6 0 0 2.5-0.6 3.2-2.2 0 0 3.7-8.6 14.3-9 0 0 0.4 1.1-1.3 1.7-2 0.7-8.8 1.2-10.2 9.1-0.2 1.3 0.2 4 2.9 5.3 2.4 1 3.2 5.3 3.7 6.5 1.4 3.3 3.5 0.2 3.5 0.2 0 0 1.3-2.7 2.4-1.2 1.9 2.5 2.8 1.2 3.2-0.4 0.5-1.7 1.2-2.4 3.2-0.4 0.8 0.9 2.5 0.2 2.6-1.3 0.4-3.4 2.7-0.7 3-0.6 0.4 0.2 2.8-0.4 1.5-4.2 0 0-1.8-3.7-10.1-5.3-1.9-0.3-1.6-1.7-1.6-1.7l1.8 0.2c0.6 0.1 5.4 0.6 5.9 0.7 20 2 35.3-4.8 35.7-5.3 15.6 3 36.8 2 40.8 0.5 4-1.4 4.3-3.7 3.8-4.3zm-32.2-24.9c0.4-0.5 0.7-0.8 1-1 1.2-0.7 1.9 1.5 1.8 1.6q0 0-0.1 0 0 0 0 0c-0.2 0.1-2.5 0.8-2.7 0.6-0.5-0.3 0-1.2 0-1.2zm-8.8 0.7c0 0 0.3-0.4 0.9-0.6 0.5-0.2 1.4-0.2 2.6 0.5 1.3 0.8 1.2 1.5 1.2 1.5q0 0 0 0 0 0 0 0-0.1 0.1-0.1 0.1 0 0 0 0c-1 0.3-4.9 0.8-4.9 0.8q-0.2-0.2-0.3-0.6 0-0.3 0-0.6 0.1-0.3 0.2-0.6 0.1-0.3 0.4-0.5zm-73.5-19.1c0.7 0.5 0 3.5-0.5 3l-3.4-1.8c0 0 3.2-1.7 3.9-1.2zm-5.5 1.9c0.6 0.5 0 3.4-0.5 3l-3.4-1.8c0 0 3.2-1.7 3.9-1.2zm-2 5.7c0.7 0.5 0.1 3.5-0.4 3.1l-3.4-1.9c0 0 3.2-1.7 3.8-1.2zm-3.2 7.8l-3.4-1.9c0 0 3.2-1.7 3.8-1.2 0.7 0.5 0.1 3.5-0.4 3.1zm-0.6 5.8l-3.4-1.8c0 0 3.1-1.7 3.8-1.2 0.7 0.5 0.1 3.4-0.4 3zm-0.1-17.3c0.7 0.5 0 3.5-0.4 3.1l-3.4-1.9c0 0 3.1-1.7 3.8-1.2zm-2.9 4.5c0.6 0.5 0 3.5-0.5 3l-3.4-1.8c0 0 3.2-1.7 3.9-1.2zm-6.1 7c0 0 3.2-1.7 3.8-1.2 0.7 0.5 0.1 3.5-0.4 3zm2.6 7.4l-3.4-1.8c0 0 3.2-1.7 3.8-1.2 0.7 0.5 0.1 3.4-0.4 3zm-2.4-12.3c0.6 0.5 0 3.4-0.5 3l-3.4-1.8c0 0 3.2-1.7 3.9-1.2zm-3.1 5.9c0.7 0.5 0.1 3.4-0.4 3l-3.4-1.8c0 0 3.1-1.7 3.8-1.2zm-4.4 7c0 0 3.1-1.7 3.8-1.2 0.7 0.5 0 3.5-0.5 3zm6.1 6.7l-3.4-1.8c0 0 3.2-1.8 3.9-1.3 0.6 0.5 0 3.5-0.5 3.1zm4.9 3.9l-3.4-1.8c0 0 3.1-1.7 3.8-1.2 0.7 0.5 0 3.4-0.4 3zm1.5-6.1l-3.4-1.9c0 0 3.2-1.7 3.8-1.2 0.7 0.5 0.1 3.5-0.4 3.1zm4.5 8.8l-3.4-1.8c0 0 3.2-1.7 3.9-1.2 0.6 0.5 0 3.4-0.5 3zm1.6-5.7l-3.3-1.8c0 0 3.1-1.7 3.8-1.2 0.7 0.5 0 3.4-0.5 3zm1.2-5.4l-3.4-1.8c0 0 3.1-1.7 3.8-1.2 0.7 0.5 0 3.5-0.4 3zm4.7 10.4l-3.3-1.8c0 0 3.1-1.7 3.8-1.2 0.7 0.5 0 3.4-0.5 3zm1.5-5.7l-3.4-1.8c0 0 3.2-1.7 3.9-1.2 0.6 0.5 0 3.5-0.5 3zm1.2-5.9l-3.3-1.9c0 0 3.1-1.7 3.8-1.2 0.7 0.5 0 3.5-0.5 3.1zm4.8 10.5l-3.4-1.8c0 0 3.2-1.7 3.9-1.2 0.6 0.5 0 3.5-0.5 3zm1.2-6l-3.4-1.8c0 0 3.1-1.7 3.8-1.2 0.7 0.5 0 3.4-0.4 3zm1.1-6.2l-3.4-1.8c0 0 3.2-1.7 3.9-1.2 0.6 0.5 0 3.4-0.5 3zm5.1 9.8l-3.4-1.8c0 0 3.2-1.7 3.9-1.2 0.7 0.5 0 3.5-0.5 3zm1-5.9l-3.4-1.8c0 0 3.1-1.7 3.8-1.2 0.7 0.5 0 3.4-0.4 3zm1.2-5.8l-3.5-1.8c0 0 3.2-1.8 3.9-1.3 0.7 0.5 0 3.5-0.4 3.1zm5.2 10.5l-3.4-1.8c0 0 3.1-1.7 3.8-1.2 0.7 0.5 0 3.4-0.4 3zm0.9-5.6l-3.4-1.8c0 0 3.1-1.7 3.8-1.2 0.7 0.5 0.1 3.5-0.4 3zm1.1-5.9l-3.4-1.8c0 0 3.2-1.7 3.8-1.2 0.7 0.5 0.1 3.4-0.4 3zm4.7 11.6l-3.4-1.8c0 0 3.2-1.7 3.8-1.2 0.7 0.5 0.1 3.4-0.4 3zm1.1-6l-3.4-1.8c0 0 3.2-1.7 3.9-1.2 0.6 0.5 0 3.4-0.5 3zm1.3-5.9l-3.4-1.8c0 0 3.2-1.7 3.8-1.2 0.7 0.5 0.1 3.4-0.4 3zm4.7 11.9l-3.4-1.8c0 0 3.1-1.7 3.8-1.2 0.7 0.5 0.1 3.4-0.4 3zm1.1-5.7l-3.4-1.8c0 0 3.1-1.7 3.8-1.2 0.7 0.5 0 3.5-0.4 3zm1.2-5.7l-3.3-1.8c0 0 3.1-1.7 3.8-1.2 0.7 0.5 0 3.4-0.5 3zm4.3 12.2l-3.4-1.8c0 0 3.2-1.7 3.9-1.2 0.6 0.5 0 3.5-0.5 3zm1.2-5.4l-3.4-1.8c0 0 3.2-1.7 3.9-1.2 0.6 0.5 0 3.4-0.5 3zm1.3-5.6l-3.4-1.8c0 0 3.2-1.7 3.9-1.2 0.6 0.5 0 3.4-0.5 3zm5.3 6.7l-3.4-1.7c0 0 3.2-1.8 3.9-1.3 0.6 0.5 0 3.5-0.5 3z"/><path class="c" d="m68 98.8c-0.7-1.9-2.1-2.7-4.5-2.7-0.3 0-11.7 0-11.7 0l-16.9 46h8.3q0.2 0 0.5 0 0.2 0 0.5-0.1 0.2 0 0.4-0.1 0.3 0 0.5-0.1c1.6-0.8 2.4-2.6 2.6-3.3 0 0.1 2.3-6.4 2.5-6.8h17c0.3 1.1 3.4 10.4 3.4 10.4h11.2l-7.1-22.4zm-3.4 23.4h-11.5c1.3-3.3 4.3-11.9 5.6-15.4 1.2 3.5 5.8 15.3 5.9 15.4zm83.5-26.5c-13.2 0-22.7 9.9-22.7 23.5 0 13.3 9.7 23.3 22.7 23.3 13 0 23.1-10.2 23.1-23.3 0-13.2-10.1-23.5-23.1-23.5zm0.3 36.6c-6.7 0-11.9-5.8-11.9-13.3 0-7.3 5.1-12.8 11.9-12.8 6.8 0 11.7 5.4 11.7 12.8 0 7.6-5 13.3-11.7 13.3zm52.6-17.3l-0.4-0.1c0 0-4.3-1.3-4.3-1.3l-0.7-0.2c-3.5-1.3-6-2.4-6-4.4v-0.1c0.4-3.4 6.7-3.5 6.7-3.5 3.5 0 6.2 0.6 9.6 1.9l0.2 0.1q1.2 0.2 2 0l0.9-0.3c1.4-0.7 2.7-4.7 3.2-6.3l0.2-0.5-0.4-0.4c-0.2-0.2-1.2-1-4.8-2.3-3.6-1.4-8.8-1.6-8.8-1.6h-2.5c-13.3 0-18.4 8.2-18.5 13.7-0.1 5.5 3 8.3 7.7 10.9 2 1.1 5.6 2.1 8.2 2.8 0 0 2.7 0.8 2.7 0.8 5 1.6 6.9 3.3 6.5 6-0.1 0.8-1.8 2.3-5.6 2.3-2.9 0-5.5-0.4-8.2-1.4q-2-0.8-4.1-2l-0.1-0.1h-0.1q-1.2-0.5-2.1-0.4l-1.1 0.2c-1.5 0.6-3.6 4.5-4.5 6.1l-0.3 0.7 0.6 0.4c0.1 0.1 2.4 2 4.4 3.1 2.4 1.3 5 2.3 8.2 2.9 1.2 0.3 3.2 0.5 6.4 0.5 10.3 0 17.7-5.2 18.6-12.9 0.4-7.1-3.9-11.7-13.6-14.6zm22-18.9c-0.4 0-2.7 0-4 1.2-0.5 0.6-0.9 1.3-0.9 2.1v7.3c0 0 12.5 0 14.1 0v35.4h11.5v-35.4c1.5 0 9 0 9 0 0.4 0 2.7 0 4-1.2q0.2-0.2 0.4-0.5 0.1-0.2 0.3-0.5 0.1-0.3 0.1-0.6 0.1-0.2 0.1-0.5v-7.3zm-197.3 35.6h-13c0-1.7 0-31.4 0-31.4q0-2-1.2-3.1c-1.2-1.1-3.1-1.1-3.8-1.1h-6.8l0.1 46h28.8v-7.4c0-0.9-0.4-3-4.1-3zm82.3-25.8c2.8-0.2 5.1 0 7.3 0.6q1.8 0.6 3.2 0.2l0.9-0.4c1.3-0.8 2.2-4.8 2.7-7.2l0.1-0.5-0.5-0.4c-0.1 0-0.5-0.3-4.7-1.4q-1-0.3-2.1-0.5-1.1-0.2-2.2-0.4-1.1-0.1-2.3-0.2-1.1-0.1-2.2-0.1h-0.2c-9.5 0-23.9 6.3-24.3 23.7v0.1c0.4 17.3 14.8 23.6 24.3 23.6h0.2c1.7 0 5-0.2 8.8-1.2 4.2-1.1 4.6-1.4 4.7-1.4l0.5-0.4-0.1-0.5c-0.5-2.4-1.4-6.4-2.7-7.2l-0.9-0.4q-1.4-0.4-3.2 0.2c-2.2 0.6-4.5 0.8-7.4 0.6-7.2-0.7-11.5-5.6-11.8-13.4 0.3-7.8 4.6-12.7 11.9-13.4zm183.7 36.1c1.7 0 4.7-1.1 4.7-4.6v-5.8l-20.3 0.1c0 0 0.1-6.7 0.1-7.8h16.7v-10.6c0 0-15 0-16.7 0 0-1.2 0-5.3 0-6.6 1.7 0 15.4 0 15.4 0 0.4 0 2.7 0 3.9-1.2 0.9-0.9 0.9-2.5 0.9-3.3v-6.1h-31.9v46z"/></svg>